<?xml version="1.0" encoding="utf-8"?>
<!-- Generator: Adobe Illustrator 16.0.0, SVG Export Plug-In . SVG Version: 6.00 Build 0)  -->
<!DOCTYPE svg PUBLIC "-//W3C//DTD SVG 1.1//EN" "http://www.w3.org/Graphics/SVG/1.1/DTD/svg11.dtd">
<svg version="1.1" id="Layer_1" xmlns="http://www.w3.org/2000/svg" xmlns:xlink="http://www.w3.org/1999/xlink" x="0px" y="0px"
	  viewBox="0 0 507.333 261.999" enable-background="new 0 0 507.333 261.999"
	 xml:space="preserve">
<path fill-rule="evenodd" clip-rule="evenodd" fill="#8AC4EA" d="M346.357,126.383c27.381-12.032,71.695-40.952,94.311-57.296
	c-77.83,2.307-170.397,5.02-261.392,14.178c31.701-22.21,79.351-22.089,115.413-14.305c-40.598-17.027-129.941-16.773-174.544-3.33
	c9.785,2.163,23.532,6.494,31.115,9.61c-14.18,5.957-34.491,18.197-46.542,29.186c17.125-1.706,34.334-2.532,51.631-2.223
	c28.647,0.502,56.03,4.228,84.18,9.196c31.615,5.589,62.288,11.593,94.403,14.199C338.744,125.904,342.553,126.17,346.357,126.383
	L346.357,126.383z"/>
<path fill-rule="evenodd" clip-rule="evenodd" fill="#FFFFFF" d="M346.357,126.383c18.525-8.137,44.791-24.011,66.85-38.475
	c-15.967,0.607-32.025,1.282-48.184,2.021c-69.573,3.181-137.363,7.374-202.695,12.429c26.488,0.873,52.014,4.42,78.2,9.041
	c31.615,5.589,62.288,11.593,94.403,14.19C338.738,125.899,342.553,126.162,346.357,126.383L346.357,126.383z"/>
<path fill-rule="evenodd" clip-rule="evenodd" fill="#8AC4EA" d="M47.309,124.275c76.255-9.223,142.033,7.59,202.352,17.797
	c68.044,11.509,130.466,15.895,217.716-10.759C261.302,159.971,234.33,85.85,47.309,124.275L47.309,124.275z"/>
<g>
	<path fill-rule="evenodd" clip-rule="evenodd" fill="#FFFFFF" d="M296.552,17.498C242.686-10.168,178.189,4.745,141.408,49.876
		h18.359C197.49,13.58,255.503,3.34,304.673,28.591c14.448,7.423,26.809,17.281,36.934,28.777h0.543
		C330.777,41.081,315.451,27.205,296.552,17.498z"/>
</g>
<g>
	<path fill-rule="evenodd" clip-rule="evenodd" fill="#FFFFFF" d="M187.008,242.428c53.866,27.666,118.361,12.753,155.143-32.378
		h-18.357c-37.725,36.296-95.737,46.536-144.906,21.285c-14.448-7.423-26.809-17.281-36.935-28.777h-0.544
		C152.784,218.846,168.106,232.721,187.008,242.428z"/>
</g>
<g>
	<path fill="#FFFFFF" d="M33.641,196.898v-24.331l-10.488,15.918H22.94l-10.382-15.759v24.171H4.465v-37.268h8.838l9.796,15.758
		l9.796-15.758h8.838v37.268H33.641z"/>
	<path fill="#FFFFFF" d="M78.416,196.898l-3.408-8.358H59.249l-3.407,8.358h-8.359l15.972-37.535h7.561l15.971,37.535H78.416z
		 M67.128,169.214l-4.951,12.085h9.902L67.128,169.214z"/>
	<path fill="#FFFFFF" d="M115.363,196.898l-7.986-11.926h-6.441v11.926h-8.199v-37.268h17.037c4.437,0,7.888,1.083,10.355,3.247
		c2.466,2.166,3.701,5.183,3.701,9.051v0.106c0,3.017-0.738,5.475-2.21,7.374c-1.473,1.898-3.399,3.292-5.776,4.179l9.104,13.31
		H115.363z M115.523,172.355c0-1.775-0.568-3.105-1.703-3.993c-1.137-0.887-2.716-1.331-4.739-1.331h-8.146v10.701h8.305
		c2.023,0,3.576-0.479,4.658-1.438c1.083-0.958,1.624-2.236,1.624-3.833V172.355z"/>
	<path fill="#FFFFFF" d="M131.601,196.898v-37.268h8.198v37.268H131.601z"/>
	<path fill="#FFFFFF" d="M175.257,196.898l-18.048-23.692v23.692h-8.094v-37.268h7.561l17.462,22.946v-22.946h8.093v37.268H175.257z
		"/>
	<path fill="#FFFFFF" d="M191.175,196.898v-37.268h28.058v7.294h-19.965v7.56h17.569v7.293h-17.569v7.827h20.231v7.293H191.175z"/>
</g>
<g>
	<path fill="#FFFFFF" d="M272.552,193.677c-1.047,0.799-2.174,1.482-3.38,2.05c-1.208,0.568-2.503,1.012-3.887,1.331
		c-1.386,0.32-2.928,0.479-4.632,0.479c-2.698,0-5.184-0.498-7.454-1.491c-2.271-0.994-4.242-2.351-5.91-4.074
		c-1.668-1.721-2.972-3.752-3.913-6.096c-0.941-2.343-1.411-4.862-1.411-7.56c0-2.662,0.47-5.164,1.411-7.506
		c0.94-2.342,2.244-4.393,3.913-6.149c1.668-1.756,3.656-3.141,5.963-4.153s4.827-1.517,7.561-1.517
		c1.703,0,3.237,0.143,4.604,0.426c1.366,0.284,2.635,0.684,3.806,1.198c1.174,0.515,2.254,1.136,3.249,1.863
		c0.992,0.727,1.95,1.535,2.874,2.423l-2.874,3.087c-1.598-1.491-3.31-2.715-5.139-3.673c-1.828-0.958-4.018-1.438-6.574-1.438
		c-2.059,0-3.967,0.392-5.725,1.171c-1.756,0.781-3.283,1.864-4.578,3.248c-1.296,1.384-2.307,3.008-3.035,4.871
		c-0.729,1.863-1.092,3.878-1.092,6.043c0,2.165,0.363,4.188,1.092,6.069c0.728,1.882,1.739,3.514,3.035,4.898
		c1.295,1.385,2.822,2.476,4.578,3.274c1.758,0.798,3.666,1.198,5.725,1.198c2.557,0,4.755-0.47,6.601-1.412
		c1.845-0.94,3.657-2.262,5.432-3.966l2.769,2.715C274.602,191.982,273.598,192.879,272.552,193.677z"/>
	<path fill="#FFFFFF" d="M309.848,163.464h-22.734v12.724h20.338v3.833h-20.338v13.043h23v3.833h-27.207v-37.268h26.941V163.464z"/>
	<path fill="#FFFFFF" d="M345.996,159.631h4.1v37.268h-3.354l-24.066-30.56v30.56h-4.098v-37.268h3.939l23.479,29.867V159.631z"/>
	<path fill="#FFFFFF" d="M374.691,196.898h-4.205v-33.381h-12.512v-3.886h29.229v3.886h-12.512V196.898z"/>
	<path fill="#FFFFFF" d="M420.799,196.898l-10.809-14.481h-10.648v14.481h-4.207v-37.268h16.025c2.059,0,3.914,0.267,5.564,0.799
		c1.65,0.532,3.061,1.287,4.232,2.263c1.17,0.977,2.076,2.149,2.717,3.516c0.639,1.368,0.955,2.886,0.955,4.555
		c0,1.562-0.248,2.956-0.744,4.181c-0.498,1.225-1.197,2.291-2.102,3.196c-0.906,0.906-1.979,1.661-3.223,2.264
		c-1.242,0.604-2.59,1.03-4.045,1.278l11.445,15.216H420.799z M417.914,165.467c-1.67-1.299-4.02-1.95-7.043-1.95h-11.529v15.173
		h11.475c1.389,0,2.668-0.178,3.844-0.533c1.176-0.356,2.188-0.865,3.043-1.524c0.852-0.658,1.52-1.468,2.002-2.43
		c0.479-0.961,0.719-2.048,0.719-3.259C420.424,168.592,419.588,166.767,417.914,165.467z"/>
	<path fill="#FFFFFF" d="M468.34,196.898h-4.525l-4.365-9.849h-20.283l-4.42,9.849h-4.313l16.982-37.535h3.941L468.34,196.898z
		 M449.334,164.316l-8.52,19.007h16.984L449.334,164.316z"/>
	<path fill="#FFFFFF" d="M475.688,159.631h4.205v33.381h20.977v3.886h-25.182V159.631z"/>
</g>
</svg>
