<svg id="Layer_1" data-name="Layer 1" xmlns="http://www.w3.org/2000/svg" viewBox="0 0 595.28 130"><defs><style>.cls-1{fill:#8dbf25;}.cls-2{fill:#f8c525;}.cls-3{fill:#e4592b;}.cls-4{fill:#5097d2;}</style></defs><title>LOGOS</title><circle class="cls-1" cx="93.35" cy="57.67" r="8.92"/><circle class="cls-2" cx="93.35" cy="93.56" r="8.92"/><circle class="cls-3" cx="82.43" cy="75.5" r="8.92"/><circle class="cls-4" cx="71.99" cy="93.56" r="8.92"/><circle class="cls-3" cx="114.7" cy="93.56" r="8.92"/><circle class="cls-4" cx="104.3" cy="75.5" r="8.92"/><path class="cls-3" d="M402.62,48.49a27,27,0,1,0,27,27A27,27,0,0,0,402.62,48.49Zm0,39.95A12.94,12.94,0,1,1,415.56,75.5,12.94,12.94,0,0,1,402.62,88.44Z"/><path class="cls-4" d="M293.28,48.49a26.22,26.22,0,0,0-12.68,3.24V36a7,7,0,0,0-14,0l.12,37.18c0,.93,0,5.15,0,5.15h0a26.58,26.58,0,0,0,26.56,24.17,27,27,0,0,0,0-54Zm0,39.95A12.94,12.94,0,1,1,306.22,75.5,12.94,12.94,0,0,1,293.28,88.44Z"/><path class="cls-3" d="M505.68,48.49a23.35,23.35,0,0,0-13,3.74A7,7,0,0,0,479.5,55.5V115a7,7,0,0,0,14,0V99.28a23.48,23.48,0,0,0,12.18,3.23,27,27,0,0,0,0-54Zm0,39.95A12.94,12.94,0,1,1,518.62,75.5,12.94,12.94,0,0,1,505.68,88.44Z"/><path class="cls-4" d="M165.13,84.58l-6.25,13.48c-1.41,3-3.77,4.19-7.07,4.19s-4.94-1.22-6.35-4.19L125.89,58.44a7.47,7.47,0,0,1-.71-3.16,6.16,6.16,0,0,1,2.46-5,8.7,8.7,0,0,1,5.64-2c3.13,0,5,2.88,6,4.76l12.83,26.21,5.13-10.58c-.94-1.89-2.61-5-3.63-6.87a14.87,14.87,0,0,1-1.89-6,6.29,6.29,0,0,1,2.14-5.17,8.08,8.08,0,0,1,4.67-2.2c3.47-.56,5.73,2.81,6.35,3.92L178.33,79.5l13.19-25.91c1.73-3.25,2.86-4.87,5.41-4.84a9,9,0,0,1,5.66,2,6.21,6.21,0,0,1,2.48,5,6.66,6.66,0,0,1-.82,3.11L184.56,98.49c-1.41,3-2.82,3.82-6.12,3.82s-5.17-1.3-6.58-4.2Z"/><path class="cls-3" d="M341.33,67a10.37,10.37,0,0,0-3,7.74c0,3.34.9,7.48,2.87,9.56,5.48,5.79,13.37,3.44,16.5,1.66s5.71-3.67,7-3.67a7,7,0,0,1,5.16,2.34A7.15,7.15,0,0,1,372,89.75c0,3.41-3.64,7-9,9.61a28.8,28.8,0,0,1-12.68,2.81,24.26,24.26,0,0,1-18.44-7.71,26.26,26.26,0,0,1-7.75-18.61q0-10.55,7.75-18.94A23.57,23.57,0,0,1,350.08,49a29.37,29.37,0,0,1,12.85,2.91c5.46,2.61,9.2,6.25,9,9-.12,1.95-.8,4.46-2.38,5.87a6.41,6.41,0,0,1-4.87,1.79c-1.4,0-4.72-2.29-7.58-4S345.79,62,341.33,67Z"/><path class="cls-3" d="M464.59,51.72c-2.86-1.91-4.25-2.83-8.37-2.92a14.21,14.21,0,0,0-6.55,1.06,6.05,6.05,0,0,0-3.43-1.06h-2a6,6,0,0,0-6,5.94l.26,41.32a6,6,0,0,0,6,5.94h2a6,6,0,0,0,6-5.94V64.57c0-.41-.11-.68.69-1.44,1.6-1.54,3.58.64,5.48,2.27a8.23,8.23,0,0,0,4.42,2.23,6.06,6.06,0,0,0,5.21-1.7,8.39,8.39,0,0,0,2.23-4.74C470.89,57.77,467.91,54.05,464.59,51.72Z"/><path class="cls-4" d="M252.29,78.14c-4.79.44-7.58,9.11-12.91,9.65-3.38.34-7.51.19-8.85-1,2.94-1.72,8.53-4.27,26.18-15.29Q260,68.85,260,66.23a9.36,9.36,0,0,0-2.12-6.15c-6.11-6.56-11.25-11.55-22.39-11.55a25.37,25.37,0,0,0-18.79,7.89A26.43,26.43,0,0,0,209,75.63,24.71,24.71,0,0,0,217,94.41a27.95,27.95,0,0,0,31.81,4.51C254.5,96,260,89,260,85.34a7.07,7.07,0,0,0-2.07-5A7.6,7.6,0,0,0,252.29,78.14ZM223.56,74.2c.1-5,4.68-11.16,12.5-11.32a11,11,0,0,1,5.53,1.36l-18,10.33C223.57,74.44,223.55,74.32,223.56,74.2Z"/></svg>